<svg xmlns="http://www.w3.org/2000/svg" version="1.1" xmlns:xlink="http://www.w3.org/1999/xlink" xmlns:svgjs="http://svgjs.com/svgjs" width="256.000000pt" height="256.000000pt"><svg version="1.0" xmlns="http://www.w3.org/2000/svg" width="256.000000pt" height="256.000000pt" viewBox="0 0 256.000000 256.000000" preserveAspectRatio="xMidYMid meet">

<g transform="translate(0.000000,256.000000) scale(0.100000,-0.100000)" fill="#000000" stroke="none" >
<path d="M1130 2534 c-146 -18 -213 -35 -340 -84 -107 -41 -250 -115 -354
-184 -99 -64 -280 -213 -359 -293 l-58 -59 41 -62 c23 -34 44 -62 47 -62 3 0
40 32 82 72 268 251 531 406 816 479 78 20 114 23 275 23 161 0 197 -3 275
-23 296 -76 561 -235 847 -509 l47 -45 25 29 c13 16 34 45 45 65 l21 36 -83
79 c-216 208 -450 362 -687 454 -130 50 -188 64 -355 85 -137 17 -143 17 -285
-1z"></path>
<path d="M1469 1863 c-145 -175 -376 -452 -512 -616 -201 -242 -248 -304 -245
-324 4 -35 31 -51 53 -33 9 7 130 151 270 319 139 168 363 440 499 603 168
202 246 304 246 320 0 26 -17 48 -36 48 -7 0 -130 -143 -275 -317z"></path>
<path d="M1090 1953 l-185 -138 -120 -5 -120 -5 0 -275 0 -275 120 -3 120 -2
203 245 202 246 -2 172 c-3 144 -5 172 -18 175 -8 1 -98 -59 -200 -135z"></path>
<path d="M1492 2028 c-13 -13 -16 -50 -6 -61 9 -9 56 51 49 63 -8 14 -28 13
-43 -2z"></path>
<path d="M1637 1869 l-25 -32 30 -59 c109 -219 58 -494 -119 -652 -45 -40 -55
-74 -28 -96 23 -19 49 -4 117 68 91 97 137 200 159 355 16 116 -5 245 -60 363
-22 46 -42 84 -45 84 -2 0 -16 -14 -29 -31z"></path>
<path d="M1522 1729 l-24 -29 19 -48 c12 -32 18 -72 18 -127 -1 -97 -23 -152
-89 -223 -46 -50 -56 -78 -34 -100 19 -19 34 -14 74 20 110 97 154 287 104
451 -26 83 -38 93 -68 56z"></path>
<path d="M1177 1314 c-70 -85 -128 -158 -130 -163 -3 -12 222 -181 240 -181 8
0 16 6 19 13 2 7 3 119 2 248 l-3 236 -128 -153z"></path>
<path d="M61 1173 c-31 -44 -38 -60 -30 -75 5 -10 59 -62 119 -115 61 -54 110
-105 110 -113 0 -8 -43 -85 -95 -172 -52 -87 -95 -164 -95 -171 0 -19 88 -99
102 -95 6 2 57 79 113 171 56 92 104 170 108 173 3 3 18 -3 34 -14 42 -29 108
-67 200 -114 93 -48 95 -52 68 -143 -9 -27 -32 -110 -51 -183 -19 -73 -37
-139 -40 -146 -5 -13 57 -48 108 -61 23 -6 26 -2 37 42 7 26 17 59 21 73 5 14
20 72 35 130 36 137 52 185 62 183 4 -1 44 -10 88 -21 44 -11 119 -26 167 -33
l88 -12 2 -231 3 -231 65 0 65 0 3 231 2 231 93 13 c50 7 129 23 175 35 58 15
85 19 88 11 2 -6 19 -69 39 -141 19 -72 39 -143 44 -160 5 -16 14 -52 21 -78
12 -44 15 -48 38 -42 46 11 113 48 109 59 -2 6 -19 65 -37 131 -18 66 -41 150
-51 186 -31 108 -31 109 64 157 92 47 158 85 200 114 16 11 31 18 34 14 3 -3
51 -81 107 -172 56 -92 106 -169 113 -171 15 -5 103 75 103 94 0 7 -43 84 -95
171 -52 87 -95 164 -95 173 0 8 49 59 110 112 60 53 114 105 119 115 8 15 2
30 -30 75 -22 31 -45 57 -51 57 -6 0 -47 -35 -92 -78 -243 -233 -528 -402
-776 -460 -25 -6 -70 -17 -100 -24 -31 -7 -118 -13 -200 -13 -82 0 -169 6
-200 13 -127 30 -148 35 -205 54 -64 22 -229 100 -307 145 -92 54 -250 177
-347 269 -55 52 -103 94 -109 94 -6 0 -29 -26 -51 -57z"></path>
</g>
</svg><style>@media (prefers-color-scheme: light) { :root { filter: none; } }
</style></svg>
